Genre:Crime | Drama | Thriller
Language:English  http://www.imdb.com/title/tt0961728/
Source:BluRay x264-DnB
 
http://shareimage.org/images/nyxk5gt00i2vrmhglwm7.png 
http://shareimage.org/images/ivnlwr5oes540mj235n3.png 
http://shareimage.org/images/1bdpd3ummizxtzkonp.png


Format : Matroska
File size : 1.81 GiB
Duration : 1h 41mn
Overall bit rate : 2 556 Kbps


Video
Format settings, CABAC : Yes
Format settings, ReFrames : 4 frames
Codec ID : V_MPEG4/ISO/AVC
Duration : 1h 41mn
Bit rate : 2 200 Kbps
Width : 1 280 pixels
Height : 688 pixels
Display aspect ratio : 1.860
Frame rate mode : Variable
Frame rate : 24.000 fps
Color space : YUV
Chroma subsampling : 4:2:0
Bit depth : 8 bits
Scan type : Progressive
Bits/(Pixel*Frame) : 0.104
Stream size : 1.50 GiB (83%)
Writing library : x264


Audio
ID : 2
Format : AC-3
Format/Info : Audio Coding 3
Mode extension : CM (complete main)
Codec ID : A_AC3
Duration : 1h 41mn
Bit rate mode : Constant
Bit rate : 384 Kbps
Channel(s) : 6 channels
Channel positions : Front: L C R, Side: L R, LFE
Sampling rate : 48.0 KHz
Bit depth : 16 bits
Video delay : -1mn 5s
Stream size : 279 MiB (15%)
Language : English


Plot:
Frank Perry is an institutionalized convict fourteen years into a life sentence without parole. When his estranged daughter falls ill.

TRAILER: http://www.imdb.com/video/imdb/vi3749118745/

